<svg width="55.75" height="114" xmlns="http://www.w3.org/2000/svg" fill="none">
 <mask height="1080" width="1920" y="0" x="0" maskUnits="userSpaceOnUse" id="mask0_1_13">
  <path id="svg_1" fill="white" d="m0,0l1920,0l0,1080l-1920,0l0,-1080z"/>
 </mask>

 <g>
  <title>Layer 1</title>
  <g stroke="null" id="svg_2" mask="url(#mask0_1_13)">
   <path stroke="null" id="svg_3" fill="#1D3D84" d="m16.37824,35.49101c-0.271,-0.25 -0.539,-0.497 -0.804,-0.743c0.155,-0.096 0.304,-0.193 0.463,-0.287c1.616,-0.953 3.578,-2.031 5.685,-3.244c1.772,1.332 3.582,2.594 5.408,3.792c-2.141,1.295 -4.376,2.635 -6.606,4.017c-1.435,-1.146 -2.829,-2.323 -4.146,-3.535zm26.093,43.081c-8.883,-5.646 -22.802,-10.785 -30.881,-18.564c-0.12,-0.116 -0.239,-0.228 -0.359,-0.342c0.102,-0.082 0.2,-0.164 0.302,-0.247c1.947,-1.582 4.207,-3.125 6.645,-4.687c10.089,7.741 23.355,13.559 27.495,16.137c4.344,2.709 7.99,6.573 9.229,12.623c1.103,-6.82 1.35,-14.007 -0.504,-18.411c-2.288,-5.437 -5.698,-8.461 -10.596,-11.148c-3.662,-2.011 -8.092,-4.509 -12.628,-7.387c2.374,-1.587 4.715,-3.267 6.931,-5.078c1.852,0.988 3.67,1.919 5.426,2.793c6.346,3.161 9.866,6.677 11.365,11.929c2.072,-9.754 -0.007,-14.563 -1.814,-17.489c-1.861,-3.014 -4.369,-5.147 -6.3,-6.491c1.977,-4.237 -0.235,-9.919 -4.596,-11.696c0.857,2.348 -1.034,4.69 -3.763,6.954c-1.993,-1.073 -4.056,-2.179 -6.106,-3.316c1.599,-1.309 3.105,-2.712 4.422,-4.225c3.546,-4.076 1.397,-9.047 -2.942,-10.424c0.945,2.864 -3.015,5.285 -5.048,6.534c-1.552,0.952 -3.318,1.874 -5.184,2.846c-1.429,-0.97 -2.759,-1.954 -3.939,-2.95c-0.169,-0.142 -0.328,-0.285 -0.49,-0.428c0.081,-0.043 0.16,-0.086 0.242,-0.129c4.14,-2.129 7.918,-4.881 10.206,-7.304c2.795,-2.958 0.545,-7.524 -2.13,-8.072c0.407,2.361 -2.119,3.705 -3.914,4.613c-2.637,1.333 -6.022,2.884 -8.879,5.071c-0.269,0.205 -0.534,0.415 -0.788,0.63c-1.505,1.274 -2.679,3.186 -3.085,5.398c-0.387,2.111 -0.032,4.58 1.397,6.752c0.159,0.218 0.326,0.436 0.499,0.651c0.384,0.476 0.801,0.952 1.246,1.423c-1.412,1.017 -2.784,2.132 -4.069,3.392c-0.002,0.002 -0.005,0.004 -0.006,0.006c-2.325,2.282 -3.954,5.458 -4.021,8.422c-0.05,2.264 0.294,4.401 2.342,7.909c0.438,0.742 0.937,1.475 1.478,2.199c-2.156,1.709 -4.093,3.467 -5.66,5.273c-0.037,0.044 -0.073,0.088 -0.111,0.132c-5.087,7.005 -4.762,12.93 -1.413,18.083c5.623,8.648 19.729,15.188 31.059,20.868c5.565,2.79 10.573,5.82 14.618,10.59c2.712,3.19 5.107,7.04 6.755,12.1c1.248,-6.92 1.172,-16 -0.558,-20.91c-1.637,-4.65 -4.971,-9.63 -11.873,-14.03z"/>
  </g>
 </g>
</svg>